<?xml version="1.0" ?><svg id="Pliers" viewBox="0 0 26.25 52" xmlns="http://www.w3.org/2000/svg"><title/><g data-name="Pliers" id="Pliers-2"><path d="M276.41,6H273V16.48a2.81,2.81,0,0,1,1.79,3,3.09,3.09,0,0,1-2.27,2.36A2.81,2.81,0,0,1,271,16.48V6h-3.41l-3.34,18.83a1,1,0,0,0,1,1.17h13.53a1,1,0,0,0,1-1.17Z" transform="translate(-258.88 -6)"/><path d="M281.13,47a20.69,20.69,0,0,1-2.63,10.39,0.4,0.4,0,0,0,.34.61h3.66a0.4,0.4,0,0,0,.37-0.23A25.49,25.49,0,0,0,285.13,47a25.49,25.49,0,0,0-2.26-10.77A0.4,0.4,0,0,0,282.5,36h-3.66a0.4,0.4,0,0,0-.34.61A20.69,20.69,0,0,1,281.13,47Zm-16,11a0.4,0.4,0,0,0,.34-0.61A20.69,20.69,0,0,1,262.88,47a20.69,20.69,0,0,1,2.63-10.39,0.4,0.4,0,0,0-.34-0.61H261.5a0.4,0.4,0,0,0-.37.23A25.49,25.49,0,0,0,258.88,47a25.49,25.49,0,0,0,2.26,10.77,0.4,0.4,0,0,0,.37.23h3.66Zm-0.77,0a21.9,21.9,0,0,1-3-11.5c0-6.9,2.74-12.82,6.63-15.28V30.09c-4.44,2.46-7.62,8.88-7.62,16.41a23.2,23.2,0,0,0,2.77,11.3,0.41,0.41,0,0,0,.35.2h0.9ZM276,31.22c3.88,2.46,6.63,8.38,6.63,15.28a21.9,21.9,0,0,1-3,11.5h0.9a0.41,0.41,0,0,0,.35-0.2,23.2,23.2,0,0,0,2.77-11.3c0-7.53-3.18-13.95-7.62-16.41v1.13Z" transform="translate(-258.88 -6)"/></g></svg>